<svg width="219px" height="140px" viewBox="0 0 219 140" xmlns="http://www.w3.org/2000/svg" xmlns:xlink="http://www.w3.org/1999/xlink">
  <defs/>
  <g>
    <path stroke="none" fill="#000000" d="M107.7 117.15 Q106.8 118 105.55 118 L97.55 118 Q96.3 118 95.45 117.15 94.55 116.25 94.55 115 94.55 113.75 95.45 112.9 96.3 112 97.55 112 L105.55 112 Q106.8 112 107.7 112.9 108.55 113.75 108.55 115 108.55 116.25 107.7 117.15 M105.55 122 Q106.8 122 107.7 122.9 108.55 123.75 108.55 125 108.55 126.25 107.7 127.15 106.8 128 105.55 128 L97.55 128 Q96.3 128 95.45 127.15 94.55 126.25 94.55 125 94.55 123.75 95.45 122.9 96.3 122 97.55 122 L105.55 122 M105.55 102 Q106.8 102 107.7 102.9 108.55 103.75 108.55 105 108.55 106.25 107.7 107.15 106.8 108 105.55 108 L97.55 108 Q96.3 108 95.45 107.15 94.55 106.25 94.55 105 94.55 103.75 95.45 102.9 96.3 102 97.55 102 L105.55 102 M126.55 112 Q127.8 112 128.7 112.9 129.55 113.75 129.55 115 129.55 116.25 128.7 117.15 127.8 118 126.55 118 L117.55 118 Q116.3 118 115.45 117.15 114.55 116.25 114.55 115 114.55 113.75 115.45 112.9 116.3 112 117.55 112 L126.55 112 M126.55 122 Q127.8 122 128.7 122.9 129.55 123.75 129.55 125 129.55 126.25 128.7 127.15 127.8 128 126.55 128 L117.55 128 Q116.3 128 115.45 127.15 114.55 126.25 114.55 125 114.55 123.75 115.45 122.9 116.3 122 117.55 122 L126.55 122 M128.7 107.15 Q127.8 108 126.55 108 L117.55 108 Q116.3 108 115.45 107.15 114.55 106.25 114.55 105 114.55 103.75 115.45 102.9 116.3 102 117.55 102 L126.55 102 Q127.8 102 128.7 102.9 129.55 103.75 129.55 105 129.55 106.25 128.7 107.15 M148.7 117.15 Q147.8 118 146.55 118 L138.55 118 Q137.3 118 136.45 117.15 135.55 116.25 135.55 115 135.55 113.75 136.45 112.9 137.3 112 138.55 112 L146.55 112 Q147.8 112 148.7 112.9 149.55 113.75 149.55 115 149.55 116.25 148.7 117.15 M146.55 122 Q147.8 122 148.7 122.9 149.55 123.75 149.55 125 149.55 126.25 148.7 127.15 147.8 128 146.55 128 L138.55 128 Q137.3 128 136.45 127.15 135.55 126.25 135.55 125 135.55 123.75 136.45 122.9 137.3 122 138.55 122 L146.55 122 M146.55 102 Q147.8 102 148.7 102.9 149.55 103.75 149.55 105 149.55 106.25 148.7 107.15 147.8 108 146.55 108 L138.55 108 Q137.3 108 136.45 107.15 135.55 106.25 135.55 105 135.55 103.75 136.45 102.9 137.3 102 138.55 102 L146.55 102 M57.35 83.55 Q57.65 83.2 58.1 83.05 L59 83.1 59.7 83.6 65.65 91.1 65.65 91.15 70.7 97.6 Q72.75 100.35 73.45 103 L73.45 103.05 Q74 105.1 74 108.5 74 114.9 69.45 119.45 64.9 124 58.5 124 52.1 124 47.55 119.45 43 114.9 43 108.5 43 105.55 43.9 102.95 44.5 100.9 46.2 97.8 47.4 95.5 51.1 90.95 L57.35 83.55 M44.55 68 Q43.3 68 42.45 67.15 41.55 66.25 41.55 65 41.55 63.75 42.45 62.9 43.3 62 44.55 62 L52.55 62 Q53.8 62 54.7 62.9 55.55 63.75 55.55 65 55.55 66.25 54.7 67.15 53.8 68 52.55 68 L44.55 68 M42.45 72.9 Q43.3 72 44.55 72 L52.55 72 Q53.8 72 54.7 72.9 55.55 73.75 55.55 75 55.55 76.25 54.7 77.15 53.8 78 52.55 78 L44.55 78 Q43.3 78 42.45 77.15 41.55 76.25 41.55 75 41.55 73.75 42.45 72.9 M62.45 72.9 Q63.3 72 64.55 72 L73.55 72 Q74.8 72 75.7 72.9 76.55 73.75 76.55 75 76.55 76.25 75.7 77.15 74.8 78 73.55 78 L64.55 78 Q63.3 78 62.45 77.15 61.55 76.25 61.55 75 61.55 73.75 62.45 72.9 M62.45 62.9 Q63.3 62 64.55 62 L73.55 62 Q74.8 62 75.7 62.9 76.55 63.75 76.55 65 76.55 66.25 75.7 67.15 74.8 68 73.55 68 L64.55 68 Q63.3 68 62.45 67.15 61.55 66.25 61.55 65 61.55 63.75 62.45 62.9 M36 57 Q34 57 34 59 L34 134 83 134 82.7 57 36 57 M136.45 97.15 Q135.55 96.25 135.55 95 135.55 93.75 136.45 92.9 137.3 92 138.55 92 L146.55 92 Q147.8 92 148.7 92.9 149.55 93.75 149.55 95 149.55 96.25 148.7 97.15 147.8 98 146.55 98 L138.55 98 Q137.3 98 136.45 97.15 M136.45 82.9 Q137.3 82 138.55 82 L146.55 82 Q147.8 82 148.7 82.9 149.55 83.75 149.55 85 149.55 86.25 148.7 87.15 147.8 88 146.55 88 L138.55 88 Q137.3 88 136.45 87.15 135.55 86.25 135.55 85 135.55 83.75 136.45 82.9 M148.7 67.15 Q147.8 68 146.55 68 L138.55 68 Q137.3 68 136.45 67.15 135.55 66.25 135.55 65 135.55 63.75 136.45 62.9 137.3 62 138.55 62 L146.55 62 Q147.8 62 148.7 62.9 149.55 63.75 149.55 65 149.55 66.25 148.7 67.15 M146.55 72 Q147.8 72 148.7 72.9 149.55 73.75 149.55 75 149.55 76.25 148.7 77.15 147.8 78 146.55 78 L138.55 78 Q137.3 78 136.45 77.15 135.55 76.25 135.55 75 135.55 73.75 136.45 72.9 137.3 72 138.55 72 L146.55 72 M146.55 52 Q147.8 52 148.7 52.9 149.55 53.75 149.55 55 149.55 56.25 148.7 57.15 147.8 58 146.55 58 L138.55 58 Q137.3 58 136.45 57.15 135.55 56.25 135.55 55 135.55 53.75 136.45 52.9 137.3 52 138.55 52 L146.55 52 M117.55 98 Q116.3 98 115.45 97.15 114.55 96.25 114.55 95 114.55 93.75 115.45 92.9 116.3 92 117.55 92 L126.55 92 Q127.8 92 128.7 92.9 129.55 93.75 129.55 95 129.55 96.25 128.7 97.15 127.8 98 126.55 98 L117.55 98 M115.45 82.9 Q116.3 82 117.55 82 L126.55 82 Q127.8 82 128.7 82.9 129.55 83.75 129.55 85 129.55 86.25 128.7 87.15 127.8 88 126.55 88 L117.55 88 Q116.3 88 115.45 87.15 114.55 86.25 114.55 85 114.55 83.75 115.45 82.9 M95.45 97.15 Q94.55 96.25 94.55 95 94.55 93.75 95.45 92.9 96.3 92 97.55 92 L105.55 92 Q106.8 92 107.7 92.9 108.55 93.75 108.55 95 108.55 96.25 107.7 97.15 106.8 98 105.55 98 L97.55 98 Q96.3 98 95.45 97.15 M94.55 85 Q94.55 83.75 95.45 82.9 96.3 82 97.55 82 L105.55 82 Q106.8 82 107.7 82.9 108.55 83.75 108.55 85 108.55 86.25 107.7 87.15 106.8 88 105.55 88 L97.55 88 Q96.3 88 95.45 87.15 94.55 86.25 94.55 85 M117.55 68 Q116.3 68 115.45 67.15 114.55 66.25 114.55 65 114.55 63.75 115.45 62.9 116.3 62 117.55 62 L126.55 62 Q127.8 62 128.7 62.9 129.55 63.75 129.55 65 129.55 66.25 128.7 67.15 127.8 68 126.55 68 L117.55 68 M115.45 72.9 Q116.3 72 117.55 72 L126.55 72 Q127.8 72 128.7 72.9 129.55 73.75 129.55 75 129.55 76.25 128.7 77.15 127.8 78 126.55 78 L117.55 78 Q116.3 78 115.45 77.15 114.55 76.25 114.55 75 114.55 73.75 115.45 72.9 M105.55 72 Q106.8 72 107.7 72.9 108.55 73.75 108.55 75 108.55 76.25 107.7 77.15 106.8 78 105.55 78 L97.55 78 Q96.3 78 95.45 77.15 94.55 76.25 94.55 75 94.55 73.75 95.45 72.9 96.3 72 97.55 72 L105.55 72 M105.55 62 Q106.8 62 107.7 62.9 108.55 63.75 108.55 65 108.55 66.25 107.7 67.15 106.8 68 105.55 68 L97.55 68 Q96.3 68 95.45 67.15 94.55 66.25 94.55 65 94.55 63.75 95.45 62.9 96.3 62 97.55 62 L105.55 62 M105.55 52 Q106.8 52 107.7 52.9 108.55 53.75 108.55 55 108.55 56.25 107.7 57.15 106.8 58 105.55 58 L97.55 58 Q96.3 58 95.45 57.15 94.55 56.25 94.55 55 94.55 53.75 95.45 52.9 96.3 52 97.55 52 L105.55 52 M117.55 58 Q116.3 58 115.45 57.15 114.55 56.25 114.55 55 114.55 53.75 115.45 52.9 116.3 52 117.55 52 L126.55 52 Q127.8 52 128.7 52.9 129.55 53.75 129.55 55 129.55 56.25 128.7 57.15 127.8 58 126.55 58 L117.55 58 M97.55 48 Q96.3 48 95.45 47.15 94.55 46.25 94.55 45 94.55 43.75 95.45 42.9 96.3 42 97.55 42 L105.55 42 Q106.8 42 107.7 42.9 108.55 43.75 108.55 45 108.55 46.25 107.7 47.15 106.8 48 105.55 48 L97.55 48 M95.45 32.9 Q96.3 32 97.55 32 L105.55 32 Q106.8 32 107.7 32.9 108.55 33.75 108.55 35 108.55 36.25 107.7 37.15 106.8 38 105.55 38 L97.55 38 Q96.3 38 95.45 37.15 94.55 36.25 94.55 35 94.55 33.75 95.45 32.9 M107.7 17.15 Q106.8 18 105.55 18 L97.55 18 Q96.3 18 95.45 17.15 94.55 16.25 94.55 15 94.55 13.75 95.45 12.9 96.3 12 97.55 12 L105.55 12 Q106.8 12 107.7 12.9 108.55 13.75 108.55 15 108.55 16.25 107.7 17.15 M105.55 22 Q106.8 22 107.7 22.9 108.55 23.75 108.55 25 108.55 26.25 107.7 27.15 106.8 28 105.55 28 L97.55 28 Q96.3 28 95.45 27.15 94.55 26.25 94.55 25 94.55 23.75 95.45 22.9 96.3 22 97.55 22 L105.55 22 M136.45 47.15 Q135.55 46.25 135.55 45 135.55 43.75 136.45 42.9 137.3 42 138.55 42 L146.55 42 Q147.8 42 148.7 42.9 149.55 43.75 149.55 45 149.55 46.25 148.7 47.15 147.8 48 146.55 48 L138.55 48 Q137.3 48 136.45 47.15 M126.55 42 Q127.8 42 128.7 42.9 129.55 43.75 129.55 45 129.55 46.25 128.7 47.15 127.8 48 126.55 48 L117.55 48 Q116.3 48 115.45 47.15 114.55 46.25 114.55 45 114.55 43.75 115.45 42.9 116.3 42 117.55 42 L126.55 42 M128.7 32.9 Q129.55 33.75 129.55 35 129.55 36.25 128.7 37.15 127.8 38 126.55 38 L117.55 38 Q116.3 38 115.45 37.15 114.55 36.25 114.55 35 114.55 33.75 115.45 32.9 116.3 32 117.55 32 L126.55 32 Q127.8 32 128.7 32.9 M136.45 32.9 Q137.3 32 138.55 32 L146.55 32 Q147.8 32 148.7 32.9 149.55 33.75 149.55 35 149.55 36.25 148.7 37.15 147.8 38 146.55 38 L138.55 38 Q137.3 38 136.45 37.15 135.55 36.25 135.55 35 135.55 33.75 136.45 32.9 M128.7 17.15 Q127.8 18 126.55 18 L117.55 18 Q116.3 18 115.45 17.15 114.55 16.25 114.55 15 114.55 13.75 115.45 12.9 116.3 12 117.55 12 L126.55 12 Q127.8 12 128.7 12.9 129.55 13.75 129.55 15 129.55 16.25 128.7 17.15 M126.55 22 Q127.8 22 128.7 22.9 129.55 23.75 129.55 25 129.55 26.25 128.7 27.15 127.8 28 126.55 28 L117.55 28 Q116.3 28 115.45 27.15 114.55 26.25 114.55 25 114.55 23.75 115.45 22.9 116.3 22 117.55 22 L126.55 22 M148.7 17.15 Q147.8 18 146.55 18 L138.55 18 Q137.3 18 136.45 17.15 135.55 16.25 135.55 15 135.55 13.75 136.45 12.9 137.3 12 138.55 12 L146.55 12 Q147.8 12 148.7 12.9 149.55 13.75 149.55 15 149.55 16.25 148.7 17.15 M146.55 22 Q147.8 22 148.7 22.9 149.55 23.75 149.55 25 149.55 26.25 148.7 27.15 147.8 28 146.55 28 L138.55 28 Q137.3 28 136.45 27.15 135.55 26.25 135.55 25 135.55 23.75 136.45 22.9 137.3 22 138.55 22 L146.55 22 M155.1 8 Q155.1 6 153.1 6 L90.55 6 Q88.55 6 88.55 8 L89 134 155.55 134 155.1 8 M166.45 122.9 Q167.3 122 168.55 122 L176.55 122 Q177.8 122 178.7 122.9 179.55 123.75 179.55 125 179.55 126.25 178.7 127.15 177.8 128 176.55 128 L168.55 128 Q167.3 128 166.45 127.15 165.55 126.25 165.55 125 165.55 123.75 166.45 122.9 M168.55 118 Q167.3 118 166.45 117.15 165.55 116.25 165.55 115 165.55 113.75 166.45 112.9 167.3 112 168.55 112 L176.55 112 Q177.8 112 178.7 112.9 179.55 113.75 179.55 115 179.55 116.25 178.7 117.15 177.8 118 176.55 118 L168.55 118 M176.55 102 Q177.8 102 178.7 102.9 179.55 103.75 179.55 105 179.55 106.25 178.7 107.15 177.8 108 176.55 108 L168.55 108 Q167.3 108 166.45 107.15 165.55 106.25 165.55 105 165.55 103.75 166.45 102.9 167.3 102 168.55 102 L176.55 102 M166.45 92.9 Q167.3 92 168.55 92 L176.55 92 Q177.8 92 178.7 92.9 179.55 93.75 179.55 95 179.55 96.25 178.7 97.15 177.8 98 176.55 98 L168.55 98 Q167.3 98 166.45 97.15 165.55 96.25 165.55 95 165.55 93.75 166.45 92.9 M178.7 82.9 Q179.55 83.75 179.55 85 179.55 86.25 178.7 87.15 177.8 88 176.55 88 L168.55 88 Q167.3 88 166.45 87.15 165.55 86.25 165.55 85 165.55 83.75 166.45 82.9 167.3 82 168.55 82 L176.55 82 Q177.8 82 178.7 82.9 M166.45 72.9 Q167.3 72 168.55 72 L176.55 72 Q177.8 72 178.7 72.9 179.55 73.75 179.55 75 179.55 76.25 178.7 77.15 177.8 78 176.55 78 L168.55 78 Q167.3 78 166.45 77.15 165.55 76.25 165.55 75 165.55 73.75 166.45 72.9 M168.55 68 Q167.3 68 166.45 67.15 165.55 66.25 165.55 65 165.55 63.75 166.45 62.9 167.3 62 168.55 62 L176.55 62 Q177.8 62 178.7 62.9 179.55 63.75 179.55 65 179.55 66.25 178.7 67.15 177.8 68 176.55 68 L168.55 68 M176.55 52 Q177.8 52 178.7 52.9 179.55 53.75 179.55 55 179.55 56.25 178.7 57.15 177.8 58 176.55 58 L168.55 58 Q167.3 58 166.45 57.15 165.55 56.25 165.55 55 165.55 53.75 166.45 52.9 167.3 52 168.55 52 L176.55 52 M183 39 Q183 37 181 37 L161.2 37 161.55 134 183 134 183 39 M181 31 Q189 31 189 39 L189 78 205 78 205 76 208 76 208 78 209.25 78 Q217.25 78 217.25 86 L217.25 87 219 87 219 90 217.25 90 217.05 140 211.05 140 211.25 90 209 90 209 87 211.25 87 211.25 86 Q211.25 84 209.25 84 L208 84 208 86 205 86 205 84 189 84 189 137 Q189 138.25 188.15 139.15 187.25 139.95 186.1 140 L30.95 140 Q29.75 139.95 28.9 139.15 28 138.25 28 137 L28 105 14 105 14 107 11 107 11 105 9.95 105 Q7.95 105 7.95 107 L7.95 108 10 108 10 111 7.95 111 8 140 2 140 1.95 111 0 111 0 108 1.95 108 1.95 107 Q1.95 99 9.95 99 L11 99 11 97 14 97 14 99 28 99 28 59 Q28 51 36 51 L82.7 51 82.55 8 Q82.55 0 90.55 0 L153.1 0 Q161.1 0 161.1 8 L161.2 31 181 31 M168.55 48 Q167.3 48 166.45 47.15 165.55 46.25 165.55 45 165.55 43.75 166.45 42.9 167.3 42 168.55 42 L176.55 42 Q177.8 42 178.7 42.9 179.55 43.75 179.55 45 179.55 46.25 178.7 47.15 177.8 48 176.55 48 L168.55 48"/>
  </g>
</svg>